<svg width="1200" height="840" viewBox="0 0 1200 840" fill="none" xmlns="http://www.w3.org/2000/svg" role="img" aria-labelledby="title desc">
  <title id="title">Product Owner value and case study</title>
  <desc id="desc">Value cards and a Saveurs du Marché product story with impact metrics.</desc>
  <defs>
    <filter id="shadow" x="-12%" y="-12%" width="124%" height="140%" color-interpolation-filters="sRGB">
      <feDropShadow dx="0" dy="14" stdDeviation="24" flood-color="#0F172A" flood-opacity=".08"/>
    </filter>
  </defs>
  <rect width="1200" height="840" rx="24" fill="#FFFFFF"/>
  <line x1="48" y1="18" x2="1152" y2="18" stroke="#D1D5DB"/>

  <text x="58" y="56" fill="#475569" font-family="Inter, Arial, sans-serif" font-size="12" font-weight="900">MA VALEUR AJOUTÉE</text>
  <text x="58" y="86" fill="#0F172A" font-family="Inter, Arial, sans-serif" font-size="24" font-weight="900">Ce que j'apporte à votre équipe produit</text>

  <g transform="translate(58 112)" font-family="Inter, Arial, sans-serif">
    <g>
      <rect width="168" height="146" rx="8" fill="#FFFFFF" stroke="#E5E7EB" filter="url(#shadow)"/>
      <rect x="18" y="18" width="36" height="36" rx="8" fill="#EEF5FF"/>
      <circle cx="36" cy="36" r="10" stroke="#2563EB" stroke-width="3"/>
      <circle cx="36" cy="36" r="3" fill="#2563EB"/>
      <text x="18" y="78" fill="#0F172A" font-size="13" font-weight="900">Vision &amp; Stratégie</text>
      <text x="18" y="103" fill="#475569" font-size="11" font-weight="700"><tspan x="18">Je comprends le marché,</tspan><tspan x="18" dy="18">les utilisateurs et les</tspan><tspan x="18" dy="18">objectifs business.</tspan></text>
    </g>
    <g transform="translate(183 0)">
      <rect width="168" height="146" rx="8" fill="#FFFFFF" stroke="#E5E7EB" filter="url(#shadow)"/>
      <rect x="18" y="18" width="36" height="36" rx="8" fill="#DCFCE7"/>
      <path d="M36 25l10 6v11l-10 6-10-6V31l10-6zM36 25v23M26 31l20 11M46 31L26 42" stroke="#00956B" stroke-width="2"/>
      <text x="18" y="78" fill="#0F172A" font-size="13" font-weight="900">Backlog &amp; Priorisation</text>
      <text x="18" y="103" fill="#475569" font-size="11" font-weight="700"><tspan x="18">Je construis un backlog</tspan><tspan x="18" dy="18">clair basé sur valeur,</tspan><tspan x="18" dy="18">effort et impact.</tspan></text>
    </g>
    <g transform="translate(366 0)">
      <rect width="168" height="146" rx="8" fill="#FFFFFF" stroke="#E5E7EB" filter="url(#shadow)"/>
      <rect x="18" y="18" width="36" height="36" rx="8" fill="#E9F8F2"/>
      <path d="M36 24v24M27 32l9-8 9 8M27 40l9 8 9-8" stroke="#00956B" stroke-width="2" stroke-linecap="round" stroke-linejoin="round"/>
      <text x="18" y="78" fill="#0F172A" font-size="13" font-weight="900">UX &amp; Parcours utilisateur</text>
      <text x="18" y="103" fill="#475569" font-size="11" font-weight="700"><tspan x="18">Je conçois des parcours</tspan><tspan x="18" dy="18">utiles, simples et orientés</tspan><tspan x="18" dy="18">conversion.</tspan></text>
    </g>
    <g transform="translate(549 0)">
      <rect width="168" height="146" rx="8" fill="#FFFFFF" stroke="#E5E7EB" filter="url(#shadow)"/>
      <rect x="18" y="18" width="36" height="36" rx="8" fill="#E9F8F2"/>
      <path d="M27 43c10 0 7-16 18-16M27 30c10 0 7 16 18 16" stroke="#00956B" stroke-width="3" stroke-linecap="round"/>
      <text x="18" y="78" fill="#0F172A" font-size="13" font-weight="900">Delivery Agile</text>
      <text x="18" y="103" fill="#475569" font-size="11" font-weight="700"><tspan x="18">J'anime les sprints, facilite</tspan><tspan x="18" dy="18">la collaboration et lève</tspan><tspan x="18" dy="18">les obstacles.</tspan></text>
    </g>
    <g transform="translate(732 0)">
      <rect width="168" height="146" rx="8" fill="#FFFFFF" stroke="#E5E7EB" filter="url(#shadow)"/>
      <rect x="18" y="18" width="36" height="36" rx="8" fill="#F5F3FF"/>
      <path d="M30 25h12l4 4v18H30zM42 25v6h6" stroke="#7C3AED" stroke-width="2" stroke-linejoin="round"/>
      <text x="18" y="78" fill="#0F172A" font-size="13" font-weight="900">Recette &amp; Qualité</text>
      <text x="18" y="103" fill="#475569" font-size="11" font-weight="700"><tspan x="18">Je garantis la qualité via</tspan><tspan x="18" dy="18">la recette fonctionnelle</tspan><tspan x="18" dy="18">et la validation.</tspan></text>
    </g>
    <g transform="translate(915 0)">
      <rect width="168" height="146" rx="8" fill="#FFFFFF" stroke="#E5E7EB" filter="url(#shadow)"/>
      <rect x="18" y="18" width="36" height="36" rx="8" fill="#E9F8F2"/>
      <path d="M36 25l11 5v8c0 7-5 11-11 14-6-3-11-7-11-14v-8l11-5zM31 38l4 4 8-10" stroke="#00956B" stroke-width="2" stroke-linecap="round" stroke-linejoin="round"/>
      <text x="18" y="78" fill="#0F172A" font-size="13" font-weight="900">Mesure &amp; Amélioration</text>
      <text x="18" y="103" fill="#475569" font-size="11" font-weight="700"><tspan x="18">J'analyse les KPIs et les</tspan><tspan x="18" dy="18">retours utilisateurs pour</tspan><tspan x="18" dy="18">améliorer en continu.</tspan></text>
    </g>
  </g>

  <g transform="translate(58 292)" filter="url(#shadow)">
    <rect width="1084" height="510" rx="10" fill="#FFFFFF" stroke="#E5E7EB"/>
    <text x="22" y="34" fill="#475569" font-family="Inter, Arial, sans-serif" font-size="12" font-weight="900">HISTOIRE D'UN PRODUIT</text>
    <text x="22" y="76" fill="#0F172A" font-family="Inter, Arial, sans-serif" font-size="26" font-weight="900">Saveurs du Marché</text>
    <text x="22" y="105" fill="#475569" font-family="Inter, Arial, sans-serif" font-size="13" font-weight="800">Plateforme e-commerce B2C - Juin 2024 à Août 2025</text>

    <text x="22" y="150" fill="#0F172A" font-family="Inter, Arial, sans-serif" font-size="14" font-weight="900">LE CONTEXTE</text>
    <text x="22" y="178" fill="#475569" font-family="Inter, Arial, sans-serif" font-size="13" font-weight="700"><tspan x="22">L'entreprise vendait ses produits via WhatsApp et en boutique.</tspan><tspan x="22" dy="21">L'objectif : créer une plateforme e-commerce complète,</tspan><tspan x="22" dy="21">automatiser les commandes et améliorer l'expérience client.</tspan></text>

    <text x="22" y="270" fill="#0F172A" font-family="Inter, Arial, sans-serif" font-size="14" font-weight="900">MON RÔLE</text>
    <g font-family="Inter, Arial, sans-serif" font-size="13" font-weight="700" fill="#334155">
      <circle cx="30" cy="296" r="5" fill="#00956B"/><text x="45" y="300">Cadrage fonctionnel et analyse des besoins</text>
      <circle cx="30" cy="324" r="5" fill="#00956B"/><text x="45" y="328">Définition de la roadmap et priorisation du backlog</text>
      <circle cx="30" cy="352" r="5" fill="#00956B"/><text x="45" y="356">Conception du parcours d'achat et des user stories</text>
      <circle cx="30" cy="380" r="5" fill="#00956B"/><text x="45" y="384">Coordination des équipes et recette fonctionnelle</text>
      <circle cx="30" cy="408" r="5" fill="#00956B"/><text x="45" y="412">Suivi des KPIs et amélioration continue</text>
    </g>

    <g transform="translate(410 70)">
      <rect x="40" y="0" width="330" height="210" rx="15" fill="#0F172A"/>
      <rect x="60" y="20" width="290" height="170" rx="5" fill="#FFFFFF"/>
      <rect x="60" y="20" width="290" height="28" rx="5" fill="#F8FAFC"/>
      <text x="82" y="39" fill="#008A64" font-family="Inter, Arial, sans-serif" font-size="12" font-weight="900">Saveurs du Marché</text>
      <g transform="translate(85 72)">
        <circle cx="18" cy="18" r="17" fill="#BEE7A6"/><circle cx="72" cy="18" r="17" fill="#E84C3D"/><circle cx="126" cy="18" r="17" fill="#F59E0B"/><circle cx="180" cy="18" r="17" fill="#FACC15"/><circle cx="234" cy="18" r="17" fill="#EF4444"/>
        <rect x="0" y="60" width="252" height="12" rx="6" fill="#E5E7EB"/>
        <rect x="0" y="85" width="72" height="54" rx="6" fill="#D9F99D"/><rect x="90" y="85" width="72" height="54" rx="6" fill="#86EFAC"/><rect x="180" y="85" width="72" height="54" rx="6" fill="#FDBA74"/>
      </g>
      <rect x="0" y="210" width="410" height="16" rx="8" fill="#111827"/>
      <rect x="298" y="84" width="110" height="210" rx="22" fill="#0F172A"/>
      <rect x="310" y="104" width="86" height="170" rx="10" fill="#FFFFFF"/>
      <text x="325" y="126" fill="#008A64" font-family="Inter, Arial, sans-serif" font-size="9" font-weight="900">Commande</text>
      <rect x="324" y="145" width="58" height="38" rx="5" fill="#D9F99D"/>
      <rect x="324" y="193" width="58" height="38" rx="5" fill="#FDBA74"/>
      <rect x="324" y="242" width="58" height="14" rx="7" fill="#00956B"/>
    </g>

    <g transform="translate(870 88)" font-family="Inter, Arial, sans-serif">
      <text x="0" y="0" fill="#475569" font-size="12" font-weight="900">L'IMPACT</text>
      <g transform="translate(0 28)">
        <rect x="0" y="0" width="44" height="44" rx="10" fill="#E9F8F2"/>
        <path d="M15 26a7 7 0 117-7 7 7 0 01-7 7zm14 10a7 7 0 117-7 7 7 0 01-7 7zm-8-12l5 4" stroke="#00956B" stroke-width="2" stroke-linecap="round"/>
        <text x="62" y="20" fill="#0F172A" font-size="30" font-weight="900">+65%</text>
        <text x="62" y="48" fill="#475569" font-size="13" font-weight="700">de commandes en ligne</text>
      </g>
      <g transform="translate(0 118)">
        <rect x="0" y="0" width="44" height="44" rx="10" fill="#FFF7ED"/>
        <path d="M12 28h10m0 0h10m-10 0V16m-8 20a8 8 0 0116 0" stroke="#F97316" stroke-width="2" stroke-linecap="round"/>
        <text x="62" y="20" fill="#0F172A" font-size="30" font-weight="900">-40%</text>
        <text x="62" y="48" fill="#475569" font-size="13" font-weight="700">de temps de traitement</text>
      </g>
      <g transform="translate(0 208)">
        <rect x="0" y="0" width="44" height="44" rx="10" fill="#EFF6FF"/>
        <path d="M22 10l10 6v8c0 7-4 12-10 15-6-3-10-8-10-15v-8l10-6zM17 24l4 4 7-10" stroke="#2563EB" stroke-width="2" stroke-linecap="round"/>
        <text x="62" y="20" fill="#0F172A" font-size="30" font-weight="900">+35%</text>
        <text x="62" y="48" fill="#475569" font-size="13" font-weight="700">de taux de conversion</text>
      </g>
      <g transform="translate(0 298)">
        <rect x="0" y="0" width="44" height="44" rx="10" fill="#FEF2F2"/>
        <circle cx="22" cy="20" r="10" stroke="#475569" stroke-width="2"/><path d="M22 30v8" stroke="#475569" stroke-width="2"/>
        <text x="62" y="20" fill="#0F172A" font-size="30" font-weight="900">92%</text>
        <text x="62" y="48" fill="#475569" font-size="13" font-weight="700">de satisfaction client</text>
      </g>
    </g>

    <line x1="0" y1="410" x2="1084" y2="410" stroke="#E5E7EB"/>
    <text x="382" y="448" fill="#008A64" font-family="Inter, Arial, sans-serif" font-size="12" font-weight="900">LA JOURNÉE TYPE D'UN PRODUCT OWNER SUR CE PROJET</text>
    <g transform="translate(86 474)" font-family="Inter, Arial, sans-serif" text-anchor="middle">
      <text x="0" y="0" fill="#00956B" font-size="13" font-weight="900">09:00</text><text x="0" y="26" fill="#0F172A" font-size="12" font-weight="800">Daily Scrum</text><text x="0" y="43" fill="#0F172A" font-size="12" font-weight="800">&amp; priorités</text>
      <text x="172" y="0" fill="#00956B" font-size="13" font-weight="900">10:00</text><text x="172" y="26" fill="#0F172A" font-size="12" font-weight="800">Affinage</text><text x="172" y="43" fill="#0F172A" font-size="12" font-weight="800">du backlog</text>
      <text x="344" y="0" fill="#00956B" font-size="13" font-weight="900">11:30</text><text x="344" y="26" fill="#0F172A" font-size="12" font-weight="800">Atelier UX /</text><text x="344" y="43" fill="#0F172A" font-size="12" font-weight="800">Parcours</text>
      <text x="516" y="0" fill="#00956B" font-size="13" font-weight="900">14:00</text><text x="516" y="26" fill="#0F172A" font-size="12" font-weight="800">Suivi</text><text x="516" y="43" fill="#0F172A" font-size="12" font-weight="800">développement</text>
      <text x="688" y="0" fill="#00956B" font-size="13" font-weight="900">15:30</text><text x="688" y="26" fill="#0F172A" font-size="12" font-weight="800">Recette &amp; tests</text>
      <text x="860" y="0" fill="#00956B" font-size="13" font-weight="900">17:00</text><text x="860" y="26" fill="#0F172A" font-size="12" font-weight="800">Analyse KPI &amp;</text><text x="860" y="43" fill="#0F172A" font-size="12" font-weight="800">next steps</text>
    </g>
  </g>
</svg>
