<svg width="1200" height="1080" viewBox="0 0 1200 1080" fill="none" xmlns="http://www.w3.org/2000/svg" role="img" aria-labelledby="title desc">
  <title id="title">Git.Karim projects method experience and contact</title>
  <desc id="desc">A Product Owner portfolio section with projects, method, professional experience, skills and contact.</desc>
  <defs>
    <filter id="shadow" x="-12%" y="-12%" width="124%" height="140%" color-interpolation-filters="sRGB">
      <feDropShadow dx="0" dy="14" stdDeviation="24" flood-color="#0F172A" flood-opacity=".08"/>
    </filter>
    <linearGradient id="cta" x1="0" y1="0" x2="1" y2="1">
      <stop stop-color="#F8FAFC"/>
      <stop offset="1" stop-color="#F3F7F5"/>
    </linearGradient>
  </defs>
  <rect width="1200" height="1080" rx="24" fill="#FFFFFF"/>

  <text x="58" y="48" fill="#0F172A" font-family="Inter, Arial, sans-serif" font-size="14" font-weight="900">AUTRES PROJETS LIVRÉS</text>
  <text x="1018" y="48" fill="#008A64" font-family="Inter, Arial, sans-serif" font-size="13" font-weight="900">Voir tous les projets →</text>

  <g transform="translate(58 72)" font-family="Inter, Arial, sans-serif">
    <g filter="url(#shadow)">
      <rect width="340" height="278" rx="10" fill="#FFFFFF" stroke="#E5E7EB"/>
      <rect x="16" y="16" width="308" height="110" rx="6" fill="#F0FDF4"/>
      <rect x="32" y="34" width="72" height="18" rx="4" fill="#00956B"/><text x="45" y="48" fill="#FFFFFF" font-size="10" font-weight="900">CMS / MÉDIA</text>
      <rect x="32" y="66" width="78" height="44" rx="4" fill="#BBF7D0"/><rect x="120" y="50" width="100" height="60" rx="4" fill="#F0ABFC"/><rect x="234" y="44" width="70" height="66" rx="4" fill="#BFDBFE"/>
      <text x="30" y="160" fill="#0F172A" font-size="24" font-weight="900">futudurable</text>
      <text x="30" y="190" fill="#008A64" font-size="14" font-weight="900">Plateforme de Presse / CMS</text>
      <text x="30" y="222" fill="#475569" font-size="13" font-weight="700"><tspan x="30">Plateforme de contenu avec gestion éditoriale,</tspan><tspan x="30" dy="20">SEO avancé et protection des articles.</tspan></text>
      <rect x="30" y="246" width="65" height="22" rx="5" fill="#F5F3FF"/><text x="44" y="261" fill="#6D28D9" font-size="11" font-weight="900">Symfony</text>
      <rect x="104" y="246" width="44" height="22" rx="5" fill="#F5F3FF"/><text x="118" y="261" fill="#6D28D9" font-size="11" font-weight="900">PHP</text>
      <rect x="157" y="246" width="42" height="22" rx="5" fill="#F5F3FF"/><text x="170" y="261" fill="#6D28D9" font-size="11" font-weight="900">SEO</text>
    </g>
    <g transform="translate(372 0)" filter="url(#shadow)">
      <rect width="340" height="278" rx="10" fill="#FFFFFF" stroke="#E5E7EB"/>
      <rect x="16" y="16" width="308" height="110" rx="6" fill="#101724"/>
      <rect x="32" y="34" width="72" height="18" rx="4" fill="#06281E"/><text x="45" y="48" fill="#35D399" font-size="10" font-weight="900">DATA / IA</text>
      <path d="M54 98h48l24-36 46 20 36-34 62 50" stroke="#35D399" stroke-width="4" stroke-linecap="round" stroke-linejoin="round"/>
      <rect x="196" y="42" width="92" height="54" rx="6" fill="#1E293B"/>
      <text x="30" y="160" fill="#0F172A" font-size="24" font-weight="900">Snikk AI</text>
      <text x="30" y="190" fill="#008A64" font-size="14" font-weight="900">Plateforme d'analyse sportive</text>
      <text x="30" y="222" fill="#475569" font-size="13" font-weight="700"><tspan x="30">Analyse sportive avec prédictions de matchs,</tspan><tspan x="30" dy="20">dashboards temps réel et modèles IA.</tspan></text>
      <rect x="30" y="246" width="58" height="22" rx="5" fill="#F5F3FF"/><text x="44" y="261" fill="#6D28D9" font-size="11" font-weight="900">Python</text>
      <rect x="98" y="246" width="58" height="22" rx="5" fill="#F5F3FF"/><text x="112" y="261" fill="#6D28D9" font-size="11" font-weight="900">Next.js</text>
      <rect x="166" y="246" width="82" height="22" rx="5" fill="#F5F3FF"/><text x="180" y="261" fill="#6D28D9" font-size="11" font-weight="900">TensorFlow</text>
    </g>
    <g transform="translate(744 0)" filter="url(#shadow)">
      <rect width="340" height="278" rx="10" fill="#FFFFFF" stroke="#E5E7EB"/>
      <rect x="16" y="16" width="308" height="110" rx="6" fill="#EFF6FF"/>
      <rect x="32" y="34" width="92" height="18" rx="4" fill="#F97316"/><text x="48" y="48" fill="#FFFFFF" font-size="10" font-weight="900">E-COMMERCE</text>
      <rect x="36" y="62" width="252" height="18" rx="4" fill="#1E3A8A"/><rect x="36" y="88" width="252" height="22" rx="4" fill="#DBEAFE"/>
      <text x="30" y="160" fill="#0F172A" font-size="24" font-weight="900">Easy Parts Store</text>
      <text x="30" y="190" fill="#008A64" font-size="14" font-weight="900">Plateforme E-Commerce B2C</text>
      <text x="30" y="222" fill="#475569" font-size="13" font-weight="700"><tspan x="30">Recherche véhicule, paiements Stripe/PayPal,</tspan><tspan x="30" dy="20">multi-zones et imports Excel.</tspan></text>
      <rect x="30" y="246" width="65" height="22" rx="5" fill="#F5F3FF"/><text x="44" y="261" fill="#6D28D9" font-size="11" font-weight="900">Symfony</text>
      <rect x="104" y="246" width="50" height="22" rx="5" fill="#F5F3FF"/><text x="118" y="261" fill="#6D28D9" font-size="11" font-weight="900">Stripe</text>
      <rect x="164" y="246" width="52" height="22" rx="5" fill="#F5F3FF"/><text x="178" y="261" fill="#6D28D9" font-size="11" font-weight="900">MySQL</text>
    </g>
  </g>

  <text x="58" y="420" fill="#0F172A" font-family="Inter, Arial, sans-serif" font-size="18" font-weight="900">MA MÉTHODE PRODUCT OWNER</text>
  <line x1="58" y1="430" x2="170" y2="430" stroke="#00956B" stroke-width="3"/>
  <g transform="translate(74 462)" font-family="Inter, Arial, sans-serif">
    <g><circle cx="22" cy="22" r="22" fill="#EFF6FF"/><text x="80" y="18" fill="#0F172A" font-size="20" font-weight="900">01</text><text x="80" y="46" fill="#0F172A" font-size="15" font-weight="900">Comprendre</text><text x="0" y="92" fill="#475569" font-size="12" font-weight="700"><tspan x="0">J'analyse le besoin, les</tspan><tspan x="0" dy="18">utilisateurs, le marché</tspan><tspan x="0" dy="18">et les contraintes.</tspan></text></g>
    <g transform="translate(185 0)"><circle cx="22" cy="22" r="22" fill="#FFF7ED"/><text x="80" y="18" fill="#0F172A" font-size="20" font-weight="900">02</text><text x="80" y="46" fill="#0F172A" font-size="15" font-weight="900">Définir</text><text x="0" y="92" fill="#475569" font-size="12" font-weight="700"><tspan x="0">Je construis la roadmap</tspan><tspan x="0" dy="18">et priorise le backlog</tspan><tspan x="0" dy="18">selon la valeur.</tspan></text></g>
    <g transform="translate(370 0)"><circle cx="22" cy="22" r="22" fill="#FFF7ED"/><text x="80" y="18" fill="#0F172A" font-size="20" font-weight="900">03</text><text x="80" y="46" fill="#0F172A" font-size="15" font-weight="900">Spécifier</text><text x="0" y="92" fill="#475569" font-size="12" font-weight="700"><tspan x="0">Je rédige les user stories,</tspan><tspan x="0" dy="18">critères d'acceptation</tspan><tspan x="0" dy="18">et règles métier.</tspan></text></g>
    <g transform="translate(555 0)"><circle cx="22" cy="22" r="22" fill="#E9F8F2"/><text x="80" y="18" fill="#0F172A" font-size="20" font-weight="900">04</text><text x="80" y="46" fill="#0F172A" font-size="15" font-weight="900">Coordonner</text><text x="0" y="92" fill="#475569" font-size="12" font-weight="700"><tspan x="0">Je fais le lien entre</tspan><tspan x="0" dy="18">métiers, design, devs</tspan><tspan x="0" dy="18">et parties prenantes.</tspan></text></g>
    <g transform="translate(740 0)"><circle cx="22" cy="22" r="22" fill="#FEF2F2"/><text x="80" y="18" fill="#0F172A" font-size="20" font-weight="900">05</text><text x="80" y="46" fill="#0F172A" font-size="15" font-weight="900">Recetter</text><text x="0" y="92" fill="#475569" font-size="12" font-weight="700"><tspan x="0">Je teste, valide et</tspan><tspan x="0" dy="18">garantis la qualité avant</tspan><tspan x="0" dy="18">la mise en production.</tspan></text></g>
    <g transform="translate(925 0)"><circle cx="22" cy="22" r="22" fill="#F5F3FF"/><text x="80" y="18" fill="#0F172A" font-size="20" font-weight="900">06</text><text x="80" y="46" fill="#0F172A" font-size="15" font-weight="900">Améliorer</text><text x="0" y="92" fill="#475569" font-size="12" font-weight="700"><tspan x="0">J'analyse les retours et</tspan><tspan x="0" dy="18">les données pour faire</tspan><tspan x="0" dy="18">évoluer le produit.</tspan></text></g>
  </g>

  <text x="58" y="654" fill="#0F172A" font-family="Inter, Arial, sans-serif" font-size="18" font-weight="900">EXPÉRIENCE PROFESSIONNELLE</text>
  <line x1="58" y1="664" x2="190" y2="664" stroke="#00956B" stroke-width="3"/>
  <g transform="translate(58 690)" font-family="Inter, Arial, sans-serif" filter="url(#shadow)">
    <rect width="715" height="238" rx="10" fill="#FFFFFF" stroke="#E5E7EB"/>
    <line x1="26" y1="24" x2="26" y2="208" stroke="#CBD5E1" stroke-width="3"/>
    <circle cx="26" cy="34" r="6" fill="#00956B"/><circle cx="26" cy="112" r="6" fill="#00956B"/><circle cx="26" cy="190" r="6" fill="#00956B"/>
    <text x="62" y="34" fill="#2563EB" font-size="11" font-weight="900">Juin 2024 - Août 2025</text>
    <text x="62" y="58" fill="#0F172A" font-size="16" font-weight="900">Product Owner IT / Développeur Web</text>
    <text x="62" y="78" fill="#475569" font-size="12" font-weight="800">Saveurs du Marché - Plateforme e-commerce B2C</text>
    <text x="385" y="49" fill="#475569" font-size="12" font-weight="700"><tspan x="385">Pilotage de bout en bout d'une plateforme e-commerce B2C.</tspan><tspan x="385" dy="20">Roadmap, backlog, user stories, coordination agile et recette.</tspan></text>
    <text x="62" y="112" fill="#2563EB" font-size="11" font-weight="900">Juin 2018 - Oct. 2023</text>
    <text x="62" y="136" fill="#0F172A" font-size="16" font-weight="900">Designer UI / UX</text>
    <text x="62" y="156" fill="#475569" font-size="12" font-weight="800">Modern Process - UX/UI Design &amp; Stratégie Digitale</text>
    <text x="385" y="128" fill="#475569" font-size="12" font-weight="700"><tspan x="385">Conception de parcours utilisateurs web et mobile.</tspan><tspan x="385" dy="20">Prototypage, design systems et tests utilisateurs.</tspan></text>
    <text x="62" y="190" fill="#2563EB" font-size="11" font-weight="900">Mars 2015 - Mai 2017</text>
    <text x="62" y="214" fill="#0F172A" font-size="16" font-weight="900">Développeur Front-End</text>
    <text x="385" y="202" fill="#475569" font-size="12" font-weight="700"><tspan x="385">Développement et intégration de sites web sur mesure.</tspan><tspan x="385" dy="20">Optimisation SEO, performance et accessibilité.</tspan></text>
  </g>

  <g transform="translate(802 690)" font-family="Inter, Arial, sans-serif">
    <g filter="url(#shadow)">
      <rect width="340" height="148" rx="10" fill="#FFFFFF" stroke="#E5E7EB"/>
      <text x="20" y="34" fill="#008A64" font-size="15" font-weight="900">COMPÉTENCES CLÉS</text>
      <g font-size="11" font-weight="900" fill="#334155">
        <rect x="20" y="52" width="92" height="24" rx="6" fill="#F3F4F6"/><text x="34" y="68">Product Owner</text>
        <rect x="122" y="52" width="72" height="24" rx="6" fill="#F3F4F6"/><text x="136" y="68">Roadmap</text>
        <rect x="204" y="52" width="64" height="24" rx="6" fill="#F3F4F6"/><text x="218" y="68">Backlog</text>
        <rect x="20" y="84" width="74" height="24" rx="6" fill="#F3F4F6"/><text x="34" y="100">User Stories</text>
        <rect x="104" y="84" width="62" height="24" rx="6" fill="#F3F4F6"/><text x="118" y="100">Recette</text>
        <rect x="176" y="84" width="84" height="24" rx="6" fill="#F3F4F6"/><text x="190" y="100">E-Commerce</text>
        <rect x="20" y="116" width="54" height="24" rx="6" fill="#F3F4F6"/><text x="34" y="132">UX/UI</text>
        <rect x="84" y="116" width="48" height="24" rx="6" fill="#F3F4F6"/><text x="98" y="132">Jira</text>
        <rect x="142" y="116" width="76" height="24" rx="6" fill="#F3F4F6"/><text x="156" y="132">Confluence</text>
      </g>
    </g>
    <g transform="translate(0 164)" filter="url(#shadow)">
      <rect width="340" height="74" rx="10" fill="#FFFFFF" stroke="#E5E7EB"/>
      <text x="20" y="28" fill="#008A64" font-size="14" font-weight="900">LANGUES</text>
      <text x="20" y="54" fill="#0F172A" font-size="12" font-weight="800">Français</text>
      <circle cx="255" cy="50" r="5" fill="#00956B"/><circle cx="271" cy="50" r="5" fill="#00956B"/><circle cx="287" cy="50" r="5" fill="#00956B"/><circle cx="303" cy="50" r="5" fill="#00956B"/><circle cx="319" cy="50" r="5" fill="#CBD5E1"/>
    </g>
  </g>

  <g transform="translate(58 968)" filter="url(#shadow)">
    <rect width="1084" height="84" rx="10" fill="url(#cta)" stroke="#E5E7EB"/>
    <rect width="330" height="84" rx="10" fill="#D1D5DB"/>
    <path d="M36 56c56-30 105-28 143-10 50 24 90 9 127-22" stroke="#FFFFFF" stroke-width="12" opacity=".65"/>
    <rect x="390" y="18" width="300" height="48" rx="7" fill="#FFFFFF" stroke="#E5E7EB"/>
    <text x="412" y="48" fill="#0F172A" font-family="Inter, Arial, sans-serif" font-size="13" font-weight="900">Email · contact@gitkarim.fr</text>
    <rect x="710" y="18" width="205" height="48" rx="7" fill="#FFFFFF" stroke="#E5E7EB"/>
    <text x="734" y="48" fill="#0F172A" font-family="Inter, Arial, sans-serif" font-size="13" font-weight="900">GitHub · Karim3l</text>
    <rect x="938" y="18" width="118" height="48" rx="7" fill="#00956B"/>
    <text x="963" y="48" fill="#FFFFFF" font-family="Inter, Arial, sans-serif" font-size="13" font-weight="900">Me contacter</text>
    <text x="390" y="-8" fill="#0F172A" font-family="Inter, Arial, sans-serif" font-size="25" font-weight="900">Discutons de votre prochain produit digital.</text>
  </g>
</svg>
